<svg id="account_balance_wallet_black_24dp_1_" data-name="account_balance_wallet_black_24dp (1)" xmlns="http://www.w3.org/2000/svg" width="96" height="96" viewBox="0 0 96 96">
  <path id="Path_24" data-name="Path 24" d="M0,0H96V96H0Z" fill="none"/>
  <path id="Path_25" data-name="Path 25" d="M75,20.12V11a8.024,8.024,0,0,0-8-8H11a8,8,0,0,0-8,8V67a8,8,0,0,0,8,8H67a8.024,8.024,0,0,0,8-8V57.88A8,8,0,0,0,79,51V27a8,8,0,0,0-4-6.88ZM71,27V51H43V27ZM11,67V11H67v8H43a8.024,8.024,0,0,0-8,8V51a8.024,8.024,0,0,0,8,8H67v8Z" transform="translate(9 9)" fill="#15ae05"/>
  <circle id="Ellipse_4" data-name="Ellipse 4" cx="6" cy="6" r="6" transform="translate(58 42)" fill="#15ae05"/>
</svg>
