<svg id="language_black_24dp_1_" data-name="language_black_24dp (1)" xmlns="http://www.w3.org/2000/svg" width="96" height="96" viewBox="0 0 96 96">
  <path id="Path_26" data-name="Path 26" d="M0,0H96V96H0Z" fill="none"/>
  <path id="Path_27" data-name="Path 27" d="M41.96,2A40,40,0,1,0,82,42,39.98,39.98,0,0,0,41.96,2ZM69.68,26H57.88a62.6,62.6,0,0,0-5.52-14.24A32.119,32.119,0,0,1,69.68,26ZM42,10.16A56.347,56.347,0,0,1,49.64,26H34.36A56.347,56.347,0,0,1,42,10.16ZM11.04,50A32.967,32.967,0,0,1,10,42a32.967,32.967,0,0,1,1.04-8H24.56A66.061,66.061,0,0,0,24,42a66.061,66.061,0,0,0,.56,8Zm3.28,8h11.8a62.6,62.6,0,0,0,5.52,14.24A31.947,31.947,0,0,1,14.32,58Zm11.8-32H14.32A31.947,31.947,0,0,1,31.64,11.76,62.6,62.6,0,0,0,26.12,26ZM42,73.84A56.347,56.347,0,0,1,34.36,58H49.64A56.347,56.347,0,0,1,42,73.84ZM51.36,50H32.64A58.851,58.851,0,0,1,32,42a58.34,58.34,0,0,1,.64-8H51.36A58.34,58.34,0,0,1,52,42,58.851,58.851,0,0,1,51.36,50Zm1,22.24A62.6,62.6,0,0,0,57.88,58h11.8A32.119,32.119,0,0,1,52.36,72.24ZM59.44,50A66.061,66.061,0,0,0,60,42a66.061,66.061,0,0,0-.56-8H72.96A32.968,32.968,0,0,1,74,42a32.968,32.968,0,0,1-1.04,8Z" transform="translate(6 6)" fill="#15ae05"/>
</svg>
