<svg id="local_shipping_black_24dp" xmlns="http://www.w3.org/2000/svg" width="96" height="96" viewBox="0 0 96 96">
  <path id="Path_22" data-name="Path 22" d="M0,0H96V96H0Z" fill="none"/>
  <path id="Path_23" data-name="Path 23" d="M77,20H65V4H9a8.024,8.024,0,0,0-8,8V56H9a12,12,0,0,0,24,0H57a12,12,0,1,0,24,0h8V36Zm-2,6,7.84,10H65V26ZM21,60a4,4,0,1,1,4-4A4.012,4.012,0,0,1,21,60Zm8.88-12a11.857,11.857,0,0,0-17.76,0H9V12H57V48ZM69,60a4,4,0,1,1,4-4A4.012,4.012,0,0,1,69,60Z" transform="translate(3 12)" fill="#15ae05"/>
</svg>
