<svg id="phone_in_talk_black_24dp" xmlns="http://www.w3.org/2000/svg" width="96" height="96" viewBox="0 0 96 96">
  <path id="Path_28" data-name="Path 28" d="M0,0H96V96H0Z" fill="none"/>
  <path id="Path_29" data-name="Path 29" d="M51,39h8A20.007,20.007,0,0,0,39,19v8A11.984,11.984,0,0,1,51,39Zm16,0h8A36,36,0,0,0,39,3v8A27.98,27.98,0,0,1,67,39Zm4,14a45.441,45.441,0,0,1-14.28-2.28,4.461,4.461,0,0,0-1.24-.2,4.1,4.1,0,0,0-2.84,1.16l-8.8,8.8A60.181,60.181,0,0,1,17.48,34.12l8.8-8.84a3.84,3.84,0,0,0,1-4A45.441,45.441,0,0,1,25,7a4.012,4.012,0,0,0-4-4H7A4.012,4.012,0,0,0,3,7,67.994,67.994,0,0,0,71,75a4.012,4.012,0,0,0,4-4V57A4.012,4.012,0,0,0,71,53ZM11.12,11h6a55.144,55.144,0,0,0,1.8,10.32l-4.8,4.84a61.39,61.39,0,0,1-3-15.16ZM67,66.88a59.607,59.607,0,0,1-15.2-3.04l4.8-4.8A51.011,51.011,0,0,0,67,60.84Z" transform="translate(9 9)" fill="#15ae05"/>
</svg>
